<?xml version="1.0" encoding="UTF-8"?>
<svg width="92px" height="58px" viewBox="0 0 92 58" version="1.1" xmlns="http://www.w3.org/2000/svg" xmlns:xlink="http://www.w3.org/1999/xlink">
    <!-- Generator: Sketch 46.2 (44496) - http://www.bohemiancoding.com/sketch -->
    <title>heli</title>
    <desc>Created with Sketch.</desc>
    <defs></defs>
    <g id="Page-1" stroke="none" stroke-width="1" fill="none" fill-rule="evenodd">
        <g id="heli">
            <path d="M39,27.5 C39,32.9 34.6,37.3 29.1,37.3 L18.2,37.3 C12.8,37.3 10,32.5 12.4,26.9 C14.6,21.9 20.5,17.7 25.9,17.7 L29.1,17.7 C34.5,17.7 39,22.1 39,27.5 Z" id="Shape"></path>
            <rect id="Rectangle-path" x="17.1" y="48.8" width="25.8" height="3.2"></rect>
            <path d="M89.5,4 C87.9,3.8 85.8,3.7 85.1,4.3 C83.6,5.4 82.4,12.4 81.5,16 L58.8,17.7 C55.4,13.3 50,12.8 44,12.8 L43.7,12.8 C43.8,12.5 43.9,12.3 43.9,11.9 C43.9,10.8 43,9.9 41.9,9.9 L40.8,9.9 L40.8,6.4 L70.4,6.4 C71.9,6.4 73.1,5.2 73.1,3.7 C73.1,2.2 71.9,1 70.4,1 L40.6,1 C40.3,0.4 39.7,7.10542736e-15 39.1,7.10542736e-15 C38.4,7.10542736e-15 37.8,0.4 37.5,1 L7.8,1 C6.3,1 5.1,2.2 5.1,3.7 C5.1,5.2 6.3,6.4 7.8,6.4 L37.4,6.4 L37.4,10 L36,10 C34.9,10 34,10.9 34,12 C34,12.3 34.1,12.6 34.2,12.9 L29.8,12.9 C19.5,12.9 10.1,18.8 6.8,28.6 C3.5,38.2 5.3,47.4 13.8,48.7 C13.8,48.7 13.8,48.7 13.8,48.7 L13.8,52.1 L13.3,52.1 C11.6,52.1 10,52.1 8.3,52.1 C7.6,52.1 6.4,52 6,51.5 C5.7,51 5.7,49 5.7,48.3 C5.7,44.6 0.2,44.7 0.2,48.4 C0.2,51.4 3.49720253e-15,54.7 2.9,56.5 C5.3,58 8.2,57.9 10.9,57.9 L58.1,57.9 C61.8,57.9 61.8,52.1 58.1,52.1 L46.4,52.1 L46.4,48.8 C46.4,48.8 46.4,48.7 46.4,48.7 C53.5,47.4 56.8,40.7 62.2,35.5 C64.5,33.3 75,27.5 81.2,25.6 C81.4,25.7 81.6,25.8 81.8,25.8 L87.4,25.8 C89.8,25.8 91.8,23.8 91.8,21.4 L91.8,6.5 C91.8,5.2 90.8,4.1 89.5,4 Z M12.4,26.9 C14.6,21.9 20.5,17.7 25.9,17.7 L29.1,17.7 C34.5,17.7 39,22.1 39,27.5 C39,32.9 34.6,37.3 29.1,37.3 L18.2,37.3 C12.8,37.3 9.9,32.5 12.4,26.9 Z M17.1,52.1 L17.1,48.9 L42.9,48.9 L42.9,52.1 L17.1,52.1 Z" id="Shape" fill="#FFFFFF" fill-rule="nonzero"></path>
        </g>
    </g>
</svg>