<?xml version="1.0" encoding="UTF-8"?>
<svg width="58px" height="90px" viewBox="0 0 58 90" version="1.1" xmlns="http://www.w3.org/2000/svg" xmlns:xlink="http://www.w3.org/1999/xlink">
    <!-- Generator: Sketch 46.2 (44496) - http://www.bohemiancoding.com/sketch -->
    <title>ped</title>
    <desc>Created with Sketch.</desc>
    <defs></defs>
    <g id="Page-1" stroke="none" stroke-width="1" fill="none" fill-rule="evenodd">
        <g id="ped" fill-rule="nonzero" fill="#FFFFFF">
            <g id="Group">
                <circle id="Oval" cx="33.5231323" cy="8.9828997" r="8.9828987"></circle>
                <path d="M56.0254974,45.4503174 L43.1186905,36.4844589 L35.9739647,22.7600727 C35.8225975,22.469532 35.6213799,22.22505 35.3985291,22.0084991 C34.8030587,21.3587894 34.0153466,20.8762111 33.0918847,20.6828594 L26.3143121,19.4666633 C26.3019677,19.4643268 26.2898866,19.4652957 26.2775422,19.463129 C25.3696137,19.2486877 24.3762971,19.4585685 23.6250649,20.1225299 L11.4556961,30.864399 C11.4261093,30.8903923 11.4053345,30.9223137 11.3770866,30.9492188 C11.3000488,31.0226365 11.229454,31.1014138 11.1601104,31.1834946 C11.0987739,31.2558899 11.039379,31.3285103 10.9860248,31.4054604 C10.9328422,31.4821854 10.8860721,31.5631295 10.8397293,31.645897 C10.7872887,31.7396089 10.738266,31.8333779 10.6966553,31.9312478 C10.6812649,31.9672738 10.6587773,31.9979402 10.6447258,32.0348779 L4.7896442,47.4046899 C4.2056007,48.9390718 4.9754715,50.6568872 6.5098533,51.2414437 C6.8582496,51.3740845 7.2158222,51.4368439 7.5676402,51.4368439 C8.7657374,51.4368439 9.8946647,50.7072182 10.3466052,49.5216904 L15.9407309,34.8363037 L20.011505,31.2430076 L17.68964,52.6430664 L13.799076,67.8033371 L1.6303043,81.2783966 C0.2913532,82.7610245 0.4079799,85.0478287 1.890604,86.3872681 C2.5826092,87.0124665 3.4497242,87.3202744 4.3139324,87.3202744 C5.3015804,87.3202744 6.285265,86.9176713 6.9995289,86.1269913 L19.7611542,71.9954987 C19.7904511,71.9630051 19.8092613,71.925438 19.8371353,71.8920975 C19.9398537,71.7701111 20.0347633,71.6419678 20.1214332,71.5055084 C20.1638717,71.4388122 20.2045135,71.372467 20.2421646,71.3036041 C20.3090286,71.181282 20.3661156,71.0529709 20.4192428,70.9211197 C20.4509048,70.8425751 20.4858207,70.7659607 20.5118141,70.6858749 C20.5198784,70.6609039 20.5325889,70.6387939 20.5401993,70.6134796 L24.9120865,56.0871887 L24.9790955,56.1064529 L32.9486657,69.1602706 L39.3213845,87.5651015 C39.8391647,89.0612869 41.2404747,90 42.7396278,90 C43.1315765,90 43.5313034,89.9351349 43.9232483,89.7996368 C45.811409,89.1455383 46.8110886,87.0861129 46.1578674,85.1978607 L39.6582946,66.4269104 C39.6563567,66.4212036 39.6529082,66.4165344 39.6508865,66.4109497 C39.6110687,66.2980804 39.549736,66.1908646 39.4979477,66.0805664 C39.4443665,65.9664993 39.3986511,65.8469086 39.3346939,65.740715 C39.3317032,65.7357559 39.3303642,65.7302246 39.3272858,65.7253265 L31.2616349,50.7187881 L34.866417,33.5097503 L38.1950532,39.9037284 C38.2085038,39.9294929 38.2301675,39.9472808 38.2441293,39.9724731 C38.3494722,40.1581878 38.4718553,40.3345527 38.6182939,40.4964942 C38.7057916,40.5951079 38.8044054,40.6755942 38.902733,40.7603568 C38.9768373,40.8235167 39.0426714,40.8931731 39.1242715,40.9498328 L39.2526971,41.0390967 C39.2804872,41.0566519 39.3049966,41.0783728 39.3333284,41.0950736 L52.6325914,50.333454 C53.1503754,50.692627 53.7406845,50.86483 54.32621,50.86483 C55.2678299,50.86483 56.1930847,50.4195289 56.7708587,49.5883255 C57.7075195,48.2394295 57.3736267,46.3870316 56.0254974,45.4503174 Z" id="Shape"></path>
            </g>
        </g>
    </g>
</svg>