<?xml version="1.0" encoding="UTF-8"?>
<svg width="60px" height="58px" viewBox="0 0 60 58" version="1.1" xmlns="http://www.w3.org/2000/svg" xmlns:xlink="http://www.w3.org/1999/xlink">
    <!-- Generator: Sketch 46.2 (44496) - http://www.bohemiancoding.com/sketch -->
    <title>upload</title>
    <desc>Created with Sketch.</desc>
    <defs></defs>
    <g id="Page-1" stroke="none" stroke-width="1" fill="none" fill-rule="evenodd">
        <g id="upload" fill-rule="nonzero" fill="#FFFFFF">
            <path d="M11.381,15.448 L28.778,0.306 C28.959,0.147 29.231,0.147 29.412,0.306 L46.809,15.448 C46.962,15.58 47.014,15.792 46.944,15.981 C46.875,16.169 46.695,16.296 46.492,16.296 L33.123,16.296 L33.123,45.773 C33.123,46.04 32.904,46.258 32.64,46.258 L25.23,46.258 C24.963,46.258 24.747,46.039 24.747,45.773 L24.747,16.295 L11.698,16.295 C11.497,16.295 11.316,16.169 11.245,15.98 C11.174,15.792 11.229,15.58 11.381,15.448 Z M59.518,49.599 C59.518,54.129 55.833,57.815 51.302,57.815 L8.698,57.815 C4.168,57.815 0.483,54.129 0.483,49.599 L0.483,38.243 L7.249,38.243 L7.249,49.598 C7.249,50.383 7.912,51.047 8.698,51.047 L51.302,51.047 C52.088,51.047 52.752,50.384 52.752,49.598 L52.752,38.081 L59.518,38.081 L59.518,49.599 L59.518,49.599 Z" id="Shape"></path>
        </g>
    </g>
</svg>